<svg width="24" height="24" viewBox="0 0 24 24" fill="none" xmlns="http://www.w3.org/2000/svg">
<path d="M11.9997 12.4723C12.9227 12.4723 13.8249 12.1986 14.5923 11.6858C15.3598 11.173 15.9579 10.4442 16.3111 9.59144C16.6643 8.73872 16.7567 7.80041 16.5767 6.89516C16.3966 5.98992 15.9522 5.1584 15.2995 4.50575C14.6469 3.85311 13.8153 3.40865 12.9101 3.22859C12.0049 3.04852 11.0665 3.14094 10.2138 3.49415C9.3611 3.84736 8.63226 4.44549 8.11948 5.21292C7.6067 5.98035 7.33301 6.8826 7.33301 7.80558C7.33301 9.04326 7.82467 10.2302 8.69984 11.1054C9.57501 11.9806 10.762 12.4723 11.9997 12.4723ZM11.9997 4.47225C12.6589 4.47225 13.3034 4.66775 13.8516 5.03402C14.3997 5.40029 14.827 5.92089 15.0793 6.52997C15.3316 7.13906 15.3976 7.80928 15.269 8.45589C15.1403 9.10249 14.8229 9.69643 14.3567 10.1626C13.8905 10.6288 13.2966 10.9463 12.65 11.0749C12.0034 11.2035 11.3332 11.1375 10.7241 10.8852C10.115 10.6329 9.59438 10.2056 9.22811 9.65749C8.86184 9.10932 8.66634 8.46486 8.66634 7.80558C8.66634 6.92153 9.01753 6.07368 9.64265 5.44856C10.2678 4.82344 11.1156 4.47225 11.9997 4.47225Z" fill="#111111"/>
<path d="M12.6667 13.3611H11.3333C9.38841 13.3611 7.52315 14.1338 6.14788 15.509C4.77262 16.8843 4 18.7496 4 20.6945C4 20.8713 4.07024 21.0409 4.19526 21.1659C4.32029 21.2909 4.48986 21.3611 4.66667 21.3611H19.3333C19.5101 21.3611 19.6797 21.2909 19.8047 21.1659C19.9298 21.0409 20 20.8713 20 20.6945C20 18.7496 19.2274 16.8843 17.8521 15.509C16.4769 14.1338 14.6116 13.3611 12.6667 13.3611ZM5.37333 20.0278C5.53726 18.5616 6.23567 17.2071 7.33512 16.2233C8.43457 15.2394 9.85796 14.6952 11.3333 14.6945H12.6667C14.142 14.6952 15.5654 15.2394 16.6649 16.2233C17.7643 17.2071 18.4627 18.5616 18.6267 20.0278H5.37333Z" fill="#111111"/>
</svg>
