<svg width="24" height="24" viewBox="0 0 24 24" fill="none" xmlns="http://www.w3.org/2000/svg">
<path d="M6.83106 21H16.1704C16.5718 20.9999 16.9687 20.9144 17.3346 20.7489C17.7005 20.5835 18.0271 20.3421 18.2926 20.0406C18.5582 19.7391 18.7566 19.3845 18.8747 19.0004C18.9928 18.6162 19.028 18.2113 18.9778 17.8125L18.0934 10.7292C18.0066 10.0451 17.6738 9.41611 17.1574 8.95983C16.6409 8.50355 15.9762 8.25121 15.2874 8.25H15.0383V7.54167C15.0383 6.60236 14.6656 5.70152 14.0022 5.03733C13.3387 4.37314 12.4389 4 11.5007 4C10.5625 4 9.66267 4.37314 8.99924 5.03733C8.33581 5.70152 7.9631 6.60236 7.9631 7.54167V8.25H7.71405C7.02502 8.25087 6.35991 8.50305 5.84318 8.95936C5.32644 9.41568 4.99348 10.0449 4.9066 10.7292L4.0222 17.8125C3.972 18.2114 4.00717 18.6164 4.12539 19.0007C4.24361 19.3849 4.44216 19.7396 4.70784 20.0411C4.97353 20.3426 5.30027 20.584 5.66635 20.7494C6.03243 20.9147 6.42946 21.0001 6.83106 21ZM9.37814 7.54167C9.37814 6.97808 9.60177 6.43758 9.99983 6.03906C10.3979 5.64055 10.9378 5.41667 11.5007 5.41667C12.0636 5.41667 12.6035 5.64055 13.0016 6.03906C13.3996 6.43758 13.6233 6.97808 13.6233 7.54167V8.25H9.37814V7.54167ZM5.42592 17.991L6.31032 10.9077C6.35308 10.5651 6.51932 10.25 6.7778 10.0214C7.03628 9.79292 7.36921 9.66676 7.71405 9.66667H7.9631V11.0833C7.9631 11.2712 8.03764 11.4514 8.17032 11.5842C8.30301 11.717 8.48297 11.7917 8.67062 11.7917C8.85826 11.7917 9.03823 11.717 9.17091 11.5842C9.3036 11.4514 9.37814 11.2712 9.37814 11.0833V9.66667H13.6233V11.0833C13.6233 11.2712 13.6978 11.4514 13.8305 11.5842C13.9632 11.717 14.1432 11.7917 14.3308 11.7917C14.5184 11.7917 14.6984 11.717 14.8311 11.5842C14.9638 11.4514 15.0383 11.2712 15.0383 11.0833V9.66667H15.2874C15.6322 9.66676 15.9651 9.79292 16.2236 10.0214C16.4821 10.25 16.6483 10.5651 16.6911 10.9077L17.5755 17.991C17.6004 18.1904 17.5826 18.3928 17.5234 18.5848C17.4641 18.7768 17.3647 18.954 17.2318 19.1046C17.0989 19.2552 16.9356 19.3758 16.7526 19.4583C16.5695 19.5409 16.3711 19.5835 16.1704 19.5833H6.83106C6.63045 19.5833 6.43215 19.5405 6.24931 19.4579C6.06647 19.3753 5.90326 19.2547 5.77052 19.1041C5.63777 18.9535 5.53853 18.7764 5.47936 18.5845C5.42019 18.3926 5.40246 18.1903 5.42734 17.991H5.42592Z" fill="#232323"/>
</svg>
